HIERARCHY
ROOT Hips
{
  OFFSET -125.086 92.215 135.881
  CHANNELS 6 Xposition Yposition Zposition Zrotation Xrotation Yrotation
  JOINT LeftUpLeg
  {
    OFFSET 8.64259 1.95398 -2.38835
    CHANNELS 3 Zrotation Xrotation Yrotation
    JOINT LeftLeg
    {
      OFFSET 43.7702 0 0
      CHANNELS 3 Zrotation Xrotation Yrotation
      JOINT LeftFoot
      {
        OFFSET 40.6238 0 0
        CHANNELS 3 Zrotation Xrotation Yrotation
        JOINT LeftToeBase
        {
          OFFSET 12.7242 0 0
          CHANNELS 3 Zrotation Xrotation Yrotation
          End Site
          {
            OFFSET 0 0 0
          }
        }
      }
    }
  }
  JOINT RightUpLeg
  {
    OFFSET -8.2249 1.95398 -2.59336
    CHANNELS 3 Zrotation Xrotation Yrotation
    JOINT RightLeg
    {
      OFFSET 43.5653 0 0
      CHANNELS 3 Zrotation Xrotation Yrotation
      JOINT RightFoot
      {
        OFFSET 40.6238 0 0
        CHANNELS 3 Zrotation Xrotation Yrotation
        JOINT RightToeBase
        {
          OFFSET 12.7242 0 0
          CHANNELS 3 Zrotation Xrotation Yrotation
          End Site
          {
            OFFSET 0 0 0
          }
        }
      }
    }
  }
  JOINT Spine
  {
    OFFSET 0.165834 0.87714 6.61349
    CHANNELS 3 Zrotation Xrotation Yrotation
    JOINT Spine1
    {
      OFFSET 7.38963 1.71661e-005 0
      CHANNELS 3 Zrotation Xrotation Yrotation
      JOINT Spine2
      {
        OFFSET 11.9445 1.14441e-005 0
        CHANNELS 3 Zrotation Xrotation Yrotation
        JOINT Spine3
        {
          OFFSET 14.7254 4.19617e-005 0
          CHANNELS 3 Zrotation Xrotation Yrotation
          JOINT Spine4
          {
            OFFSET 10.9679 0 0
            CHANNELS 3 Zrotation Xrotation Yrotation
            JOINT RightShoulder
            {
              OFFSET 2.46616 -1.6653 3.69651
              CHANNELS 3 Zrotation Xrotation Yrotation
              JOINT RightArm
              {
                OFFSET 13.0012 0 0
                CHANNELS 3 Zrotation Xrotation Yrotation
                JOINT RightForeArm
                {
                  OFFSET 28.7848 1.52588e-005 0
                  CHANNELS 3 Zrotation Xrotation Yrotation
                  JOINT RightHand
                  {
                    OFFSET 26.5688 1.52588e-005 0
                    CHANNELS 3 Zrotation Xrotation Yrotation
                    End Site
                    {
                      OFFSET 0 0 0
                    }
                  }
                }
              }
            }
            JOINT LeftShoulder
            {
              OFFSET 2.38034 -1.29275 -3.7523
              CHANNELS 3 Zrotation Xrotation Yrotation
              JOINT LeftArm
              {
                OFFSET 16.3182 6.10352e-005 0
                CHANNELS 3 Zrotation Xrotation Yrotation
                JOINT LeftForeArm
                {
                  OFFSET 27.0901 0 0
                  CHANNELS 3 Zrotation Xrotation Yrotation
                  JOINT LeftHand
                  {
                    OFFSET 24.5451 1.52588e-005 0
                    CHANNELS 3 Zrotation Xrotation Yrotation
                    End Site
                    {
                      OFFSET 0 0 0
                    }
                  }
                }
              }
            }
            JOINT Neck
            {
              OFFSET 5.0226 -0.0266342 0
              CHANNELS 3 Zrotation Xrotation Yrotation
              JOINT Head
              {
                OFFSET 6.69363 2.86102e-005 0
                CHANNELS 3 Zrotation Xrotation Yrotation
                End Site
                {
                  OFFSET 0 0 0
                }
              }
            }
          }
        }
      }
    }
  }
}
MOTION
Frames:	18
Frame Time:	0.0416667
-297.959 77.1473 292.349 99.8393 36.3279 75.8571 -176.046 -14.1404 77.0869 -40.6214 15.1192 2.79009 111.093 22.3582 19.3091 -2.56188 -1.20636 9.90783 132.985 -11.1379 23.0531 80.8311 -4.93085 89.351 -56.0705 14.2416 16.1755 114.565 -14.3381 1.11062 0.184675 3.77259 -89.4164 19.3246 0.673023 1.04974 7.6534 0.718583 1.01911 -14.8788 0.326448 1.20347 5.13386 0.32644 1.20346 122.615 -27.7519 -39.9118 74.1276 -53.8063 48.8862 144.945 2.48997 -108.106 -0.287853 -0.159739 -48.5596 -61.4766 -21.5329 132.833 72.3253 -63.1948 101.946 -167.775 46.1456 179.989 17.1207 0.637069 -0.135947 -69.2669 -3.06964 7.52554 6.25315 -0.406658 -8.92754 
-298.267 77.0132 292.69 99.8615 36.3998 75.7779 -176.081 -13.568 76.9828 -41.5407 15.1344 2.87685 112.117 23.173 19.4419 -4.46921 -0.887418 9.15804 133.082 -11.5645 22.4095 79.9998 -4.71696 89.3156 -55.744 14.1448 15.6772 114.644 -14.1403 1.39198 0.177996 3.77964 -89.4276 19.3106 0.653891 1.031 7.63947 0.698609 1.00123 -14.8928 0.313819 1.17983 5.11983 0.313822 1.17983 122.555 -27.6274 -39.9472 74.2524 -53.9684 49.0407 144.632 2.35851 -108.031 -0.241895 -0.177383 -48.3878 -61.3157 -21.8199 133.004 71.3872 -63.0483 100.816 -168.154 46.5345 179.989 16.7224 0.616576 -0.167689 -69.1712 -3.12009 7.61544 6.18825 -0.41593 -8.93922 
-299.144 76.6538 293.658 99.9254 36.607 75.5497 -176.182 -11.9559 76.6946 -44.0614 15.103 3.12024 114.9 25.2842 19.6892 -9.5091 0.161306 7.04104 133.374 -12.8421 20.6433 77.6473 -4.22805 89.2228 -54.6275 13.9791 14.2123 114.757 -13.5241 2.22646 0.158535 3.80023 -89.4595 19.2699 0.598749 0.977587 7.59874 0.641202 0.950274 -14.9338 0.277277 1.11233 5.07887 0.277279 1.11231 122.391 -27.28 -40.0424 74.5905 -54.433 49.474 143.739 1.98343 -107.827 -0.0934265 -0.233728 -47.8891 -60.8471 -22.6464 133.499 68.8003 -62.5777 97.6926 -169.236 47.6495 179.989 15.5901 0.560518 -0.252384 -68.8926 -3.26612 7.87649 6.00434 -0.444359 -8.9789 
-300.518 76.1519 295.169 100.026 36.9353 75.1874 -176.315 -9.33636 76.2493 -48.0527 14.8458 3.49483 119.062 28.0603 19.7409 -16.3141 2.13056 3.87059 133.854 -15.011 18.0865 74.1843 -3.8122 89.0712 -52.3367 14.1676 11.9233 114.583 -12.3383 3.72655 0.127325 3.83324 -89.51 19.2046 0.510559 0.893104 7.53343 0.549355 0.869764 -14.9995 0.218541 1.00525 5.01317 0.218552 1.00524 122.146 -26.7497 -40.1798 75.0817 -55.1661 50.1394 142.341 1.39622 -107.538 0.193801 -0.339781 -47.0808 -60.0849 -23.9613 134.291 65.046 -61.6874 93.1315 -170.928 49.407 179.989 13.827 0.478987 -0.369605 -68.444 -3.50268 8.3041 5.71809 -0.493599 -9.05718 
-302.317 75.5928 297.143 100.159 37.3697 74.7054 -176.469 -5.87341 75.6455 -53.112 14.2461 3.97747 124.031 30.8483 19.438 -23.4886 5.05045 0.116924 134.428 -18.0971 15.1215 70.7262 -3.87141 88.8006 -48.3444 15.9205 9.38206 113.598 -10.1051 6.45294 0.0852154 3.8773 -89.5775 19.1173 0.391598 0.780365 7.44621 0.425571 0.762367 -15.0872 0.138962 0.861968 4.92549 0.138976 0.861975 121.841 -26.0745 -40.3424 75.6642 -56.1348 50.9902 140.509 0.629345 -107.216 0.676524 -0.510619 -45.9751 -59.0343 -25.716 135.363 60.718 -60.2792 87.8112 -173.121 51.7321 179.988 11.5443 0.38254 -0.495219 -67.8379 -3.82723 8.90178 5.34541 -0.56547 -9.18703 
-304.471 75.053 299.498 100.319 37.8952 74.1173 -176.638 -1.79145 74.8885 -58.727 13.2937 4.54911 129.175 33.1822 18.8594 -30.0255 8.69312 -3.76281 134.903 -22.009 12.0685 70.3509 -4.80907 88.4393 -41.9763 23.2008 8.01823 110.56 -5.524 12.2514 0.0324428 3.93096 -89.6604 19.0108 0.243973 0.641793 7.33976 0.271974 0.63042 -15.1941 0.0398125 0.685445 4.81851 0.0398097 0.685436 121.497 -25.2894 -40.5154 76.278 -57.3071 51.9814 138.31 -0.284893 -106.91 1.42218 -0.760355 -44.5857 -57.6922 -27.8641 136.703 56.39 -58.3147 82.3997 -175.665 54.5692 179.955 8.85945 0.279926 -0.603765 -67.0847 -4.23708 9.67565 4.90097 -0.66093 -9.38094 
-306.832 74.5397 302.088 100.502 38.4968 73.4362 -176.783 2.86633 74.1274 -64.7681 11.9848 5.19405 134.244 34.867 18.1336 -35.4101 12.6858 -7.45964 135.002 -26.5097 8.73581 78.7314 -7.04594 89.2361 -30.7732 49.8907 4.17665 99.6037 5.61655 31.259 -0.0299417 3.99279 -89.7572 18.8879 0.0700478 0.480017 7.21689 0.091119 0.47646 -15.3176 -0.0774661 0.478886 4.69508 -0.0774474 0.47887 121.131 -24.4279 -40.6858 76.8604 -58.6498 53.0619 135.822 -1.31443 -106.665 2.50287 -1.09815 -42.9332 -56.0519 -30.3565 138.3 52.4847 -55.8433 77.4224 -179.054 57.8714 -179.349 5.89774 0.177178 -0.668685 -66.1945 -4.72651 10.6297 4.39862 -0.779942 -9.6497 
-311.205 70.9177 306.925 100.705 39.1591 72.6762 -175.54 13.0682 72.3599 -79.5822 9.00056 5.88261 142.413 35.342 16.7533 -39.5317 16.6625 -10.826 132.75 -32.983 -0.859442 45.5909 0.206229 87.6667 83.2568 50.4254 -88.2859 19.8577 -20.5347 104.773 -0.100883 4.06141 -89.8657 18.7512 -0.126793 0.298351 7.0802 -0.113525 0.303632 -15.4548 -0.210583 0.246453 4.55784 -0.210611 0.246451 120.76 -23.5231 -40.8412 77.3403 -60.1257 54.1674 133.135 -2.42697 -106.515 3.98692 -1.52335 -41.0474 -54.1058 -33.1391 140.146 49.2038 -52.9915 73.1881 175.508 61.4905 -176.442 2.79259 0.076835 -0.662278 -65.1774 -5.28532 11.7609 3.85211 -0.921515 -10.0014 
-320.685 62.7279 317.111 100.924 39.8679 71.8514 -170.861 33.9954 68.368 -102.206 5.83794 6.61885 146.013 33.7963 17.6927 -42.5196 20.3678 -13.828 134.921 -40.3893 -11.3058 50.354 8.38111 102.298 152.916 -19.9341 -116.774 -118.654 43.9817 8.56911 -0.178629 4.13566 -89.9835 18.6028 -0.341685 0.101025 6.93192 -0.336924 0.115972 -15.6036 -0.356261 -0.00633703 4.40905 -0.356267 -0.00634093 120.4 -22.6069 -40.9707 77.6374 -61.692 55.2166 130.357 -3.59245 -106.48 5.92151 -2.02147 -38.9649 -51.8463 -36.1549 142.235 46.5427 -49.9239 69.7934 168.344 65.2314 -171.717 -0.326868 -0.0224447 -0.557507 -64.0441 -5.89784 13.0542 3.27496 -1.08431 -10.4401 
-322.407 64.6069 318.689 101.156 40.6098 70.9754 -171.375 35.26 66.8948 -101.02 5.2432 7.42835 145.175 34.0091 18.6937 -44.5869 23.6659 -16.4748 160.731 -9.40236 59.9769 -104.552 -8.46792 -17.87 -134.28 -37.8896 -162.553 51.6053 0.60205 -105.181 -0.260799 4.21463 -90.1071 18.4446 -0.568212 -0.106786 6.77381 -0.572355 -0.0816774 -15.7622 -0.509857 -0.27262 4.25049 -0.509838 -0.272627 120.064 -21.7087 -41.0645 77.6629 -63.3002 56.1109 127.614 -4.78759 -106.559 8.31628 -2.56312 -36.7211 -49.2642 -39.348 144.561 44.3714 -46.8036 67.1886 158.641 68.8615 -164.272 -3.34779 -0.125001 -0.33032 -62.8056 -6.54382 14.4809 2.6804 -1.26755 -10.966 
-322.592 66.8312 319.206 101.4 41.3726 70.0623 -173.036 34.3829 66.1333 -98.8556 4.15442 8.26308 145.592 33.7032 19.423 -45.9521 26.5021 -18.7829 152.937 -20.5654 59.1078 -6.26537 67.5617 -72.2708 142.197 -3.63248 140.772 86.8657 -30.5964 -35.2318 -0.344247 4.29759 -90.2328 18.2779 -0.798067 -0.318771 6.60717 -0.811326 -0.283349 -15.9291 -0.665389 -0.5439 4.08351 -0.665368 -0.543897 119.764 -20.856 -41.1146 77.3173 -64.8934 56.7313 125.049 -5.99568 -106.728 11.1301 -3.1038 -34.3432 -46.3491 -42.6629 147.124 42.5148 -43.7728 65.2489 145.255 72.0196 -152.916 -6.17594 -0.237036 0.0395892 -61.4762 -7.19939 15.9966 2.08251 -1.47148 -11.576 
-324.495 67.2492 321.385 101.653 42.1449 69.1271 -173.145 37.3325 64.3139 -100.047 3.08709 9.11589 144.812 32.8722 20.7403 -46.8082 28.8684 -20.7654 148.683 -29.1579 54.3088 13.9355 69.263 -78.5975 112.905 -15.8084 146.808 80.4327 -10.0141 -4.86352 -0.425119 4.38407 -90.3556 18.1038 -1.02108 -0.527185 6.43315 -1.0433 -0.481734 -16.1034 -0.815448 -0.809688 3.90924 -0.81544 -0.809703 119.51 -20.0762 -41.1153 76.496 -66.4027 56.9429 122.816 -7.20546 -106.947 14.2585 -3.58423 -31.842 -43.0897 -46.0457 149.929 40.8059 -40.9427 63.8161 127.294 74.167 -136.737 -8.73673 -0.36518 0.567443 -60.0759 -7.83809 17.539 1.4974 -1.69788 -12.2634 
-326.797 67.163 323.852 101.914 42.9168 68.1849 -172.634 41.0755 62.0578 -101.673 2.2111 9.9752 143.228 31.8303 22.2904 -47.3094 30.7813 -22.4278 143.067 -36.6501 47.9686 25.2053 72.2408 -76.969 99.4023 -26.3359 143.9 72.2341 -3.7886 10.5027 -0.498989 4.47369 -90.4701 17.923 -1.22594 -0.722989 6.25245 -1.25657 -0.668343 -16.2842 -0.951988 -1.05802 3.72848 -0.951977 -1.05802 119.312 -19.3964 -41.0648 75.1084 -67.7505 56.6165 121.057 -8.40836 -107.156 17.5376 -3.93757 -29.207 -39.4658 -49.4466 152.994 39.1176 -38.3871 62.7189 105.994 74.7022 -116.979 -10.978 -0.514544 1.26124 -58.629 -8.43362 19.0315 0.943562 -1.94986 -13.0198 
-329.086 66.96 326.241 102.182 43.6802 67.2508 -171.857 44.6617 59.6528 -102.724 1.65112 10.8271 140.922 30.6778 23.9283 -47.5706 32.2633 -23.7666 135.397 -43.3817 39.8036 30.6346 76.0247 -68.835 90.7792 -35.2969 139.334 64.0598 -1.23104 19.8205 -0.561805 4.56637 -90.5704 17.7359 -1.40138 -0.896541 6.06546 -1.43947 -0.833991 -16.4711 -1.06718 -1.27626 3.54154 -1.06716 -1.27626 119.176 -18.8448 -40.9659 73.1012 -68.8549 55.6569 119.878 -9.59017 -107.297 20.7674 -4.09985 -26.4151 -35.4393 -52.8192 156.36 37.3774 -36.1422 61.7869 85.54 73.3976 -97.8601 -12.8662 -0.687281 2.12136 -57.1635 -8.96288 20.3899 0.441643 -2.23136 -13.8364 
-331.135 66.8241 328.315 102.457 44.4287 66.34 -171.008 47.6105 57.275 -102.946 1.36819 11.6546 138.222 29.5167 25.4901 -47.6724 33.3309 -24.7722 121.122 -50.3095 25.2552 25.5425 81.3131 -42.9573 84.6601 -46.7822 133.418 56.9306 -0.491818 25.6798 -0.609703 4.66233 -90.6509 17.5424 -1.53687 -1.03779 5.87202 -1.58106 -0.969136 -16.6644 -1.15396 -1.45169 3.34828 -1.15397 -1.45169 119.109 -18.4535 -40.8274 70.4862 -69.6323 54.0351 119.343 -10.7215 -107.319 23.7301 -4.01969 -23.4439 -30.9467 -56.1159 160.103 35.5672 -34.2098 60.8558 69.2605 70.6338 -82.7544 -14.3788 -0.881516 3.14086 -55.71 -9.40774 21.5278 0.0153994 -2.54693 -14.7068 
-332.768 66.8578 329.873 102.739 45.1571 65.468 -170.314 49.5672 55.13 -102.262 1.28438 12.4369 135.458 28.4727 26.8539 -47.6618 33.9853 -25.4288 107.206 -53.8156 11.5762 3.17999 83.9323 -4.76524 77.8137 -54.7578 125.52 50.9022 -0.575238 29.2511 -0.639514 4.76215 -90.7059 17.3416 -1.62339 -1.1371 5.67123 -1.67188 -1.06453 -16.865 -1.20666 -1.5724 3.1477 -1.20666 -1.57241 119.116 -18.262 -40.6669 67.3546 -70.0023 51.8105 119.466 -11.7498 -107.188 26.2092 -3.67207 -20.2889 -25.8912 -59.2808 164.339 33.7192 -32.56 59.767 57.3139 67.0105 -71.8747 -15.4983 -1.09049 4.30463 -54.298 -9.75613 22.3633 -0.306999 -2.90189 -15.631 
-333.829 67.1234 330.74 103.029 45.8626 64.6504 -170.086 50.2272 53.5085 -100.516 1.38079 13.1468 132.785 27.6832 27.9634 -47.5491 34.2033 -25.7109 104.853 -54.5444 9.72263 0.655449 80.5993 -1.58445 66.7504 -52.9281 113.674 45.9449 -0.977806 31.1285 -0.649043 4.86683 -90.7313 17.1316 -1.65475 -1.1866 5.46119 -1.70534 -1.11261 -17.0748 -1.22168 -1.62902 2.93787 -1.22165 -1.62902 119.204 -18.3216 -40.5118 63.8454 -69.8938 49.1098 120.215 -12.5946 -106.897 28.0207 -3.07252 -16.9784 -20.1446 -62.2393 169.225 31.9025 -31.1355 58.3708 48.5051 63.0098 -64.0842 -16.2064 -1.30157 5.58821 -52.9533 -10.0044 22.8314 -0.493405 -3.3024 -16.6196 
-334.19 67.6672 330.763 103.327 46.5445 63.9015 -170.482 49.4705 52.5468 -97.8136 1.60906 13.7501 130.373 27.2418 28.8069 -47.2979 33.9272 -25.5808 104.093 -54.9815 9.48648 0.0780609 76.0017 -1.17909 58.1258 -49.3851 103.696 42.0761 -1.4243 31.6189 -0.637416 4.97795 -90.7239 16.9094 -1.62726 -1.18029 5.23905 -1.67763 -1.10752 -17.2968 -1.19735 -1.61475 2.71588 -1.19735 -1.61475 119.38 -18.7044 -40.4014 60.0834 -69.2395 46.0773 121.537 -13.1496 -106.468 29.0371 -2.27918 -13.5781 -13.5923 -64.8853 174.914 30.2053 -29.8611 56.5235 41.7125 58.9749 -58.3139 -16.4798 -1.49634 6.9562 -51.6956 -10.1545 22.8856 -0.507802 -3.75523 -17.6957 
